<?xml version="1.0" encoding="UTF-8"?>
<!DOCTYPE svg PUBLIC "-//W3C//DTD SVG 1.1//EN" "http://www.w3.org/Graphics/SVG/1.1/DTD/svg11.dtd">
<!-- Creator: CorelDRAW 2021.5 -->
<svg xmlns="http://www.w3.org/2000/svg" xml:space="preserve" width="42.3332mm" height="84.6666mm" version="1.1" style="shape-rendering:geometricPrecision; text-rendering:geometricPrecision; image-rendering:optimizeQuality; fill-rule:evenodd; clip-rule:evenodd"
viewBox="0 0 4233.32 8466.66"
 xmlns:xlink="http://www.w3.org/1999/xlink"
 xmlns:xodm="http://www.corel.com/coreldraw/odm/2003">
 <defs>
  <style type="text/css">
   <![CDATA[
    .fil0 {fill:#01174B;fill-rule:nonzero}
   ]]>
  </style>
 </defs>
 <g id="Слой_x0020_1">
  <metadata id="CorelCorpID_0Corel-Layer"/>
  <path class="fil0" d="M1126.09 5987.82c0.01,-66.59 26.54,-130.51 73.63,-177.54l1283.46 -1283.45c78.43,-78.37 122.55,-184.9 122.55,-295.81 0,-110.91 -44.12,-217.44 -122.56,-295.82l-1281.95 -1281.96c-45.17,-46.79 -70.45,-109.29 -70.45,-174.34 0,-138.59 112.39,-250.98 250.97,-250.98 65.05,0 127.56,25.28 174.34,70.45l1281.97 1281.96c172.24,172.56 269.17,406.79 269.17,650.69 0,243.9 -96.93,478.13 -269.2,650.74l-1283.64 1283.63c-47,46.94 -110.82,73.35 -177.31,73.35 -138.59,0 -250.94,-112.33 -250.97,-250.91l-0.01 -0.01z"/>
 </g>
</svg>
