<?xml version="1.0" encoding="UTF-8"?>
<!DOCTYPE svg PUBLIC "-//W3C//DTD SVG 1.1//EN" "http://www.w3.org/Graphics/SVG/1.1/DTD/svg11.dtd">
<!-- Creator: CorelDRAW 2021.5 -->
<svg xmlns="http://www.w3.org/2000/svg" xml:space="preserve" width="86.6986mm" height="86.6986mm" version="1.1" style="shape-rendering:geometricPrecision; text-rendering:geometricPrecision; image-rendering:optimizeQuality; fill-rule:evenodd; clip-rule:evenodd"
viewBox="0 0 8669.86 8669.86"
 xmlns:xlink="http://www.w3.org/1999/xlink"
 xmlns:xodm="http://www.corel.com/coreldraw/odm/2003">
 <defs>
  <style type="text/css">
   <![CDATA[
    .fil0 {fill:#01174B;fill-rule:nonzero}
   ]]>
  </style>
 </defs>
 <g id="Слой_x0020_1">
  <metadata id="CorelCorpID_0Corel-Layer"/>
  <path class="fil0" d="M6274 616.14c-807.58,12.41 -1548.03,456.46 -1939.19,1163.32 -390.91,-706.86 -1131.37,-1150.91 -1939.05,-1163.31 -1282,55.69 -2293.23,1111.7 -2293.23,2395.14 0,29.85 0.88,60.88 1.76,90.44 0,1603.08 1687.34,3353.89 3102.51,4540.95 315.66,265.24 715.58,411.04 1128.13,411.04 412.55,0 812.47,-145.8 1128.26,-411.06 1415.1,-1187.09 3102.44,-2937.89 3102.44,-4540.98 0.82,-29.51 1.7,-60.54 1.7,-90.39 0,-1283.44 -1011.23,-2339.45 -2293.2,-2395.06l-0.13 -0.09z"/>
 </g>
</svg>
